<svg version="1.2" xmlns="http://www.w3.org/2000/svg" viewBox="0 0 32 38" width="32" height="38"><style>.a{fill:#007aff}</style><path  d="m41.6 30v-14.5h4v14.5zm1.9-16.9q-0.9 0-1.6-0.6-0.6-0.7-0.6-1.6 0-1 0.6-1.6 0.7-0.7 1.6-0.7 1 0 1.6 0.7 0.6 0.6 0.6 1.6 0 0.9-0.6 1.6-0.6 0.6-1.6 0.6zm5.5 16.9v-14.5h3.9v14.5zm9.4 0v-8.6q0-1.3-0.8-1.9-0.8-0.8-1.9-0.8-0.8 0-1.4 0.4-0.7 0.3-1 0.9-0.4 0.6-0.4 1.4l-1.5-0.7q0-1.7 0.7-3 0.8-1.2 2-1.9 1.3-0.6 2.8-0.6 1.5 0 2.8 0.6 1.2 0.7 1.9 1.9 0.7 1.2 0.7 3v9.3zm9.5 0v-8.6q0-1.3-0.9-1.9-0.7-0.8-1.9-0.8-0.7 0-1.4 0.4-0.6 0.3-1 0.9-0.4 0.6-0.4 1.4l-2.2-0.5q0.1-1.8 0.9-3 0.8-1.3 2.2-2 1.3-0.7 2.9-0.7 1.6 0 2.9 0.6 1.3 0.7 2 2 0.8 1.2 0.8 3v9.2zm13.1 0.3q-2 0-3.6-1-1.5-1-2.4-2.7-0.9-1.7-0.9-3.9 0-2.1 0.9-3.8 0.9-1.8 2.4-2.8 1.6-0.9 3.6-0.9 1.6 0 2.8 0.6 1.2 0.6 1.9 1.8 0.8 1.1 0.8 2.5v5.2q0 1.5-0.8 2.6-0.7 1.1-1.9 1.7-1.2 0.7-2.8 0.7zm0.7-3.7q1.7 0 2.7-1 1-1.2 1-2.9 0-1.1-0.5-2-0.4-0.9-1.3-1.4-0.8-0.5-1.9-0.5-1.1 0-1.9 0.5-0.8 0.5-1.3 1.4-0.4 0.9-0.4 2 0 1.2 0.4 2.1 0.5 0.9 1.3 1.4 0.8 0.4 1.9 0.4zm3.5 3.4v-3.9l0.6-3.6-0.6-3.5v-3.5h3.9v14.5zm13.4 6.4q-2.3 0-4.1-0.8-1.8-0.8-2.8-2.3l2.5-2.5q0.8 1 1.8 1.5 1.1 0.5 2.5 0.5 1.9 0 2.9-0.9 1.1-1 1.1-2.6v-3.6l0.6-3.2-0.6-3.2v-3.8h3.9v13.7q0 2.2-1 3.8-1 1.6-2.8 2.5-1.7 0.9-4 0.9zm-0.2-6.8q-2 0-3.5-0.9-1.6-1-2.5-2.7-0.8-1.6-0.8-3.7 0-2 0.8-3.6 0.9-1.7 2.5-2.6 1.5-0.9 3.5-0.9 1.6 0 2.8 0.6 1.3 0.6 2 1.7 0.7 1.1 0.8 2.6v4.6q-0.1 1.4-0.8 2.5-0.7 1.2-2 1.8-1.2 0.6-2.8 0.6zm0.8-3.6q1 0 1.8-0.4 0.8-0.5 1.3-1.3 0.4-0.9 0.4-1.9 0-1.1-0.4-1.9-0.5-0.8-1.3-1.3-0.8-0.5-1.8-0.5-1.1 0-1.9 0.5-0.8 0.5-1.3 1.3-0.4 0.8-0.4 1.9 0 1 0.4 1.8 0.5 0.8 1.3 1.3 0.8 0.5 1.9 0.5zm10.7 4v-14.5h3.9v14.5zm2-16.9q-1 0-1.6-0.6-0.6-0.7-0.6-1.6 0-1 0.6-1.6 0.6-0.7 1.6-0.7 1 0 1.6 0.7 0.6 0.6 0.6 1.6 0 0.9-0.6 1.6-0.6 0.6-1.6 0.6zm7.3 16.9v-16.1q0-1.8 0.8-3.1 0.7-1.3 2.1-2.1 1.4-0.8 3.2-0.8 1.4 0 2.5 0.5 1 0.5 1.8 1.3l-2.5 2.5q-0.3-0.3-0.7-0.5-0.4-0.2-1-0.2-1.1 0-1.7 0.6-0.6 0.6-0.6 1.7v16.2zm-3.3-11.1v-3.4h11.5v3.4zm18.2 11.2l-6-14.6h4.2l4 11.1h-1.4l4.1-11.1h4.3l-6.4 14.6zm-4 6l4.4-9.4 2.4 3.4-2.7 6z"/><path fill-rule="evenodd" class="a" d="m0 17.7c0-6.5 0-9.7 2-11.8 2-2 5.3-2 11.7-2h3.5c6.4 0 9.7 0 11.7 2 2 2.1 2 5.3 2 11.8v3.5c0 6.5 0 9.7-2 11.8-2 2-5.3 2-11.7 2h-3.5c-6.4 0-9.7 0-11.7-2-2-2.1-2-5.3-2-11.8zm25.8-6.1c0-1.4-1.2-2.6-2.6-2.6-1.4 0-2.6 1.2-2.6 2.6 0 1.5 1.2 2.6 2.6 2.6 1.4 0 2.6-1.1 2.6-2.6zm-3.5 9.5c0-3.8-3.1-6.9-6.8-6.9-3.8 0-6.9 3.1-6.9 6.9 0 3.9 3.1 6.9 6.9 6.9 3.7 0 6.8-3 6.8-6.9zm-6.8 3.5c-1.9 0-3.5-1.6-3.5-3.5 0-1.9 1.6-3.4 3.5-3.4 1.9 0 3.4 1.5 3.4 3.4 0 1.9-1.5 3.5-3.4 3.5z"/></svg>